<?xml version="1.0" encoding="UTF-8" standalone="no"?>
<svg width="636px" height="934px" viewBox="0 0 636 934" version="1.1" xmlns="http://www.w3.org/2000/svg" xmlns:xlink="http://www.w3.org/1999/xlink" xmlns:sketch="http://www.bohemiancoding.com/sketch/ns">
    <!-- Generator: Sketch 3.4.1 (15681) - http://www.bohemiancoding.com/sketch -->
    <title>FIELD</title>
    <desc>Created with Sketch.</desc>
    <defs></defs>
    <g id="DESKTOP-template" stroke="none" stroke-width="1" fill="none" fill-rule="evenodd" sketch:type="MSPage">
        <g id="DESKTOP-STANDARD" sketch:type="MSArtboardGroup" transform="translate(-79.000000, -47.000000)" stroke="#FFFFFF">
            <g id="FIELD" sketch:type="MSLayerGroup" transform="translate(86.000000, 59.000000)">
                <rect id="TURF" stroke-width="12" fill-opacity="0" fill="#548420" sketch:type="MSShapeGroup" x="5" y="0" width="612" height="910" rx="58"></rect>
                <g id="CENTER-LINE" transform="translate(0.000000, 389.000000)" stroke-width="6" sketch:type="MSShapeGroup" stroke-linecap="square">
                    <path d="M0.5,65 L614.969971,65" id="Line"></path>
                    <circle id="Oval-1" cx="309" cy="66" r="66"></circle>
                </g>
                <g id="GOAL-BOX-ATTACK" transform="translate(211.000000, 1.000000)" stroke-width="6" sketch:type="MSShapeGroup" stroke-linecap="square">
                    <path d="M0,0 L0,144 L199,144 L199,0" id="Path-2"></path>
                    <path d="M51.6639688,-7.10542736e-15 L51.6639688,29.3411297 L150.623826,29.3411297 L150.623826,-7.10542736e-15" id="Path-3"></path>
                    <path d="M168,213 C168,175.444637 137.555363,145 100,145 C62.444637,145 32,175.444637 32,213" id="Oval-2" transform="translate(100.000000, 179.000000) scale(1, -1) translate(-100.000000, -179.000000) "></path>
                </g>
                <g id="GOAL-BOX-DEFENSE" transform="translate(310.500000, 800.500000) scale(1, -1) translate(-310.500000, -800.500000) translate(211.000000, 694.000000)" stroke-width="6" sketch:type="MSShapeGroup" stroke-linecap="square">
                    <path d="M0,0 L0,144 L199,144 L199,0" id="Path-2"></path>
                    <path d="M51.6639688,-7.10542736e-15 L51.6639688,29.3411297 L150.623826,29.3411297 L150.623826,-7.10542736e-15" id="Path-3"></path>
                    <path d="M168,213 C168,175.444637 137.555363,145 100,145 C62.444637,145 32,175.444637 32,213" id="Oval-2" transform="translate(100.000000, 179.000000) scale(1, -1) translate(-100.000000, -179.000000) "></path>
                </g>
            </g>
        </g>
    </g>
</svg>