<?xml version="1.0" encoding="UTF-8" standalone="no"?>
<svg width="286px" height="420px" viewBox="0 0 286 420" version="1.1" xmlns="http://www.w3.org/2000/svg" xmlns:xlink="http://www.w3.org/1999/xlink" xmlns:sketch="http://www.bohemiancoding.com/sketch/ns">
    <!-- Generator: Sketch 3.4.1 (15681) - http://www.bohemiancoding.com/sketch -->
    <title>FIELD mobile</title>
    <desc>Created with Sketch.</desc>
    <defs></defs>
    <g id="MOBILE-template" stroke="none" stroke-width="1" fill="none" fill-rule="evenodd" sketch:type="MSPage">
        <g id="MOBILE-STANDARD" sketch:type="MSArtboardGroup" transform="translate(-17.000000, -59.000000)" stroke="#FFFFFF">
            <g id="FIELD-mobile" sketch:type="MSLayerGroup" transform="translate(20.000000, 64.000000)">
                <rect id="TURF" stroke-width="5" fill-opacity="0" fill="#548420" sketch:type="MSShapeGroup" x="2" y="0" width="275.747164" height="410" rx="26.1"></rect>
                <g id="CENTER-LINE" transform="translate(0.000000, 175.000000)" stroke-width="4" sketch:type="MSShapeGroup" stroke-linecap="square">
                    <path d="M0.22528363,30 L277.085335,30" id="Line"></path>
                    <ellipse id="Oval-1" cx="139.225284" cy="29.7362637" rx="29.7374392" ry="29.7362637"></ellipse>
                </g>
                <g id="GOAL-BOX-ATTACK" transform="translate(95.069692, 1.351648)" stroke-width="4" sketch:type="MSShapeGroup" stroke-linecap="square">
                    <path d="M0,0 L0,64.8791209 L89.6628849,64.8791209 L89.6628849,0" id="Path-2"></path>
                    <path d="M23.2780929,-3.55271368e-15 L23.2780929,13.2196299 L67.8661646,13.2196299 L67.8661646,-3.55271368e-15" id="Path-3"></path>
                    <path d="M75.6952998,95.967033 C75.6952998,79.0464848 61.9779431,65.3296703 45.0567261,65.3296703 C28.1355091,65.3296703 14.4181524,79.0464848 14.4181524,95.967033" id="Oval-2" transform="translate(45.056726, 80.648352) scale(1, -1) translate(-45.056726, -80.648352) "></path>
                </g>
                <g id="GOAL-BOX-DEFENSE" transform="translate(140.069692, 360.648352) scale(1, -1) translate(-140.069692, -360.648352) translate(95.069692, 312.648352)" stroke-width="4" sketch:type="MSShapeGroup" stroke-linecap="square">
                    <path d="M0,0 L0,64.8791209 L89.6628849,64.8791209 L89.6628849,0" id="Path-2"></path>
                    <path d="M23.2780929,-3.55271368e-15 L23.2780929,13.2196299 L67.8661646,13.2196299 L67.8661646,-3.55271368e-15" id="Path-3"></path>
                    <path d="M75.6952998,95.967033 C75.6952998,79.0464848 61.9779431,65.3296703 45.0567261,65.3296703 C28.1355091,65.3296703 14.4181524,79.0464848 14.4181524,95.967033" id="Oval-2" transform="translate(45.056726, 80.648352) scale(1, -1) translate(-45.056726, -80.648352) "></path>
                </g>
            </g>
        </g>
    </g>
</svg>