<?xml version="1.0" encoding="UTF-8" standalone="no"?>
<svg width="286px" height="420px" viewBox="0 0 286 420" version="1.1" xmlns="http://www.w3.org/2000/svg" xmlns:xlink="http://www.w3.org/1999/xlink" xmlns:sketch="http://www.bohemiancoding.com/sketch/ns">
    <!-- Generator: Sketch 3.4.1 (15681) - http://www.bohemiancoding.com/sketch -->
    <title>LAYOUT</title>
    <desc>Created with Sketch.</desc>
    <defs></defs>
    <g id="SEQUENCE" stroke="none" stroke-width="1" fill="none" fill-rule="evenodd" sketch:type="MSPage">
        <g id="ATTACKING-2" sketch:type="MSArtboardGroup" transform="translate(-17.000000, -59.000000)">
            <g id="LAYOUT" sketch:type="MSLayerGroup" transform="translate(20.000000, 64.000000)">
                <path d="M139.816972,204.666444 L139.816972,204.71972 L58,204.71972 L101.660958,0.173662007 L139.183028,0.0552763837 L139.183028,0 L177.339042,0.120385777 L221,204.666444 L139.816972,204.666444 Z" id="DANGER-ZONE-ATTACK-mobile" fill="#04C97E" sketch:type="MSShapeGroup" transform="translate(139.500000, 102.359860) scale(1, -1) translate(-139.500000, -102.359860) "></path>
                <g id="FIELD-mobile" stroke="#FFFFFF" sketch:type="MSShapeGroup">
                    <rect id="TURF" stroke-width="5" fill-opacity="0" fill="#548420" x="2" y="0" width="275.747164" height="410" rx="26.1"></rect>
                    <g id="CENTER-LINE" transform="translate(0.000000, 175.000000)" stroke-width="4" stroke-linecap="square">
                        <path d="M0.22528363,30 L277.085335,30" id="Line"></path>
                        <ellipse id="Oval-1" cx="139.225284" cy="29.7362637" rx="29.7374392" ry="29.7362637"></ellipse>
                    </g>
                    <g id="GOAL-BOX-ATTACK" transform="translate(95.069692, 1.351648)" stroke-width="4" stroke-linecap="square">
                        <path d="M0,0 L0,64.8791209 L89.6628849,64.8791209 L89.6628849,0" id="Path-2"></path>
                        <path d="M23.2780929,-3.55271368e-15 L23.2780929,13.2196299 L67.8661646,13.2196299 L67.8661646,-3.55271368e-15" id="Path-3"></path>
                        <path d="M75.6952998,95.967033 C75.6952998,79.0464848 61.9779431,65.3296703 45.0567261,65.3296703 C28.1355091,65.3296703 14.4181524,79.0464848 14.4181524,95.967033" id="Oval-2" transform="translate(45.056726, 80.648352) scale(1, -1) translate(-45.056726, -80.648352) "></path>
                    </g>
                    <g id="GOAL-BOX-DEFENSE" transform="translate(140.069692, 360.648352) scale(1, -1) translate(-140.069692, -360.648352) translate(95.069692, 312.648352)" stroke-width="4" stroke-linecap="square">
                        <path d="M0,0 L0,64.8791209 L89.6628849,64.8791209 L89.6628849,0" id="Path-2"></path>
                        <path d="M23.2780929,-3.55271368e-15 L23.2780929,13.2196299 L67.8661646,13.2196299 L67.8661646,-3.55271368e-15" id="Path-3"></path>
                        <path d="M75.6952998,95.967033 C75.6952998,79.0464848 61.9779431,65.3296703 45.0567261,65.3296703 C28.1355091,65.3296703 14.4181524,79.0464848 14.4181524,95.967033" id="Oval-2" transform="translate(45.056726, 80.648352) scale(1, -1) translate(-45.056726, -80.648352) "></path>
                    </g>
                </g>
                <g id="PLAYERS" transform="translate(45.000000, 35.000000)">
                    <g id="KEEPER-mobile" transform="translate(81.000000, 333.000000)">
                        <g id="PLAYER-mobile" fill="#080808" sketch:type="MSShapeGroup">
                            <ellipse id="Oval-4-Copy-3" cx="13" cy="13" rx="13" ry="13"></ellipse>
                        </g>
                        <text id="K" sketch:type="MSTextLayer" font-family="Gotham" font-size="15.525" font-weight="bold" fill="#02E68F">
                            <tspan x="7.52631579" y="18.1578947">K</tspan>
                        </text>
                    </g>
                    <g id="MID-mobile" transform="translate(81.000000, 86.000000)">
                        <g id="PLAYER-mobile" fill="#080808" sketch:type="MSShapeGroup">
                            <ellipse id="Oval-4-Copy-3" cx="13" cy="13" rx="13" ry="13"></ellipse>
                        </g>
                        <text id="M" sketch:type="MSTextLayer" font-family="Gotham" font-size="15.525" font-weight="bold" fill="#02E68F">
                            <tspan x="6.52631579" y="18.1578947">M</tspan>
                        </text>
                    </g>
                    <g id="DEFENSE-R-mobile" transform="translate(119.000000, 159.000000)">
                        <g id="PLAYER-mobile" fill="#080808" sketch:type="MSShapeGroup">
                            <ellipse id="Oval-4-Copy-3" cx="13" cy="13" rx="13" ry="13"></ellipse>
                        </g>
                        <text id="D" sketch:type="MSTextLayer" font-family="Gotham" font-size="15.525" font-weight="bold" fill="#02E68F">
                            <tspan x="7.52631579" y="18.1578947">D</tspan>
                        </text>
                    </g>
                    <g id="ATTACK-R-mobile" transform="translate(164.000000, 7.000000)">
                        <g id="PLAYER-mobile" fill="#080808" sketch:type="MSShapeGroup">
                            <ellipse id="Oval-4-Copy-3" cx="13" cy="13" rx="13" ry="13"></ellipse>
                        </g>
                        <text id="A" sketch:type="MSTextLayer" font-family="Gotham" font-size="15.525" font-weight="bold" fill="#02E68F">
                            <tspan x="6.52631579" y="18.1578947">A</tspan>
                        </text>
                    </g>
                    <g id="ATTACK-L-mobile">
                        <g id="PLAYER-mobile" fill="#080808" sketch:type="MSShapeGroup">
                            <ellipse id="Oval-4-Copy-3" cx="13" cy="13" rx="13" ry="13"></ellipse>
                        </g>
                        <text id="A" sketch:type="MSTextLayer" font-family="Gotham" font-size="15.525" font-weight="bold" fill="#02E68F">
                            <tspan x="6.52631579" y="18.1578947">A</tspan>
                        </text>
                    </g>
                    <g id="DEFENSE-L-mobile" transform="translate(38.000000, 159.000000)">
                        <g id="PLAYER-mobile" fill="#080808" sketch:type="MSShapeGroup">
                            <ellipse id="Oval-4-Copy-3" cx="13" cy="13" rx="13" ry="13"></ellipse>
                        </g>
                        <text id="D" sketch:type="MSTextLayer" font-family="Gotham" font-size="15.525" font-weight="bold" fill="#02E68F">
                            <tspan x="7.52631579" y="18.1578947">D</tspan>
                        </text>
                    </g>
                </g>
            </g>
        </g>
    </g>
</svg>