<?xml version="1.0" encoding="UTF-8" standalone="no"?>
<svg width="320px" height="568px" viewBox="0 0 320 568" version="1.1" xmlns="http://www.w3.org/2000/svg" xmlns:xlink="http://www.w3.org/1999/xlink" xmlns:sketch="http://www.bohemiancoding.com/sketch/ns">
    <!-- Generator: Sketch 3.4.1 (15681) - http://www.bohemiancoding.com/sketch -->
    <title>MOBILE HOME SCREEN</title>
    <desc>Created with Sketch.</desc>
    <defs>
        <path id="path-1" d="M0,0.0905273574 L163.918,0.0905273574 L163.918,147 L0,147 L0,0.0905273574 Z"></path>
        <path id="path-3" d="M0.145926531,0.0297764843 C10.7769755,37.5248731 38.9064898,58.9348498 46.8650082,64.3610151 L46.8650082,64.3610151 L46.8653429,64.360844 L46.8653429,0.0297764843 L0.145926531,0.0297764843 Z"></path>
        <path id="path-5" d="M0.145926531,0.0297764843 C10.7769755,37.5248731 38.9064898,58.9348498 46.8650082,64.3610151 L46.8650082,64.3610151 L46.8653429,64.360844 L46.8653429,0.0297764843 L0.145926531,0.0297764843 Z"></path>
        <path id="path-7" d="M0.145926531,0.0297764843 C10.7769755,37.5248731 38.9064898,58.9348498 46.8650082,64.3610151 L46.8650082,64.3610151 L46.8653429,64.360844 L46.8653429,0.0297764843 L0.145926531,0.0297764843 Z"></path>
        <path id="path-9" d="M0.145926531,0.0297764843 C10.7769755,37.5248731 38.9064898,58.9348498 46.8650082,64.3610151 L46.8650082,64.3610151 L46.8653429,64.360844 L46.8653429,0.0297764843 L0.145926531,0.0297764843 Z"></path>
        <path id="path-11" d="M0.145926531,0.0297764843 C10.7769755,37.5248731 38.9064898,58.9348498 46.8650082,64.3610151 L46.8650082,64.3610151 L46.8653429,64.360844 L46.8653429,0.0297764843 L0.145926531,0.0297764843 Z"></path>
        <path id="path-13" d="M0.145926531,0.0297764843 C10.7769755,37.5248731 38.9064898,58.9348498 46.8650082,64.3610151 L46.8650082,64.3610151 L46.8653429,64.360844 L46.8653429,0.0297764843 L0.145926531,0.0297764843 Z"></path>
        <path id="path-15" d="M0.145926531,0.0297764843 C10.7769755,37.5248731 38.9064898,58.9348498 46.8650082,64.3610151 L46.8650082,64.3610151 L46.8653429,64.360844 L46.8653429,0.0297764843 L0.145926531,0.0297764843 Z"></path>
        <path id="path-17" d="M0.145926531,0.0297764843 C10.7769755,37.5248731 38.9064898,58.9348498 46.8650082,64.3610151 L46.8650082,64.3610151 L46.8653429,64.360844 L46.8653429,0.0297764843 L0.145926531,0.0297764843 Z"></path>
        <path id="path-19" d="M0,0.0905273574 L163.918,0.0905273574 L163.918,147 L0,147 L0,0.0905273574 Z"></path>
    </defs>
    <g id="SEQUENCE" stroke="none" stroke-width="1" fill="none" fill-rule="evenodd" sketch:type="MSPage">
        <g id="MOBILE-HOME-SCREEN" sketch:type="MSArtboardGroup">
            <g id="Page-1" sketch:type="MSLayerGroup" transform="translate(78.000000, 26.000000)">
                <g id="Group-16">
                    <g id="Group-3">
                        <mask id="mask-2" sketch:name="Clip 2" fill="white">
                            <use xlink:href="#path-1"></use>
                        </mask>
                        <g id="Clip-2"></g>
                        <path d="M78.833411,145.13168 C78.2326355,144.777956 63.9479008,136.269924 49.6300314,119.139376 C30.6138967,96.389115 20.5622029,69.0621744 20.5622029,40.1148112 L20.5622029,9.07368196 L26.9257376,9.07368196 C61.0820845,9.07368196 79.3244069,1.26505565 79.5046396,1.18616508 L82.0079824,0.0905958091 L84.5113253,1.18616508 C84.6769988,1.25769709 103.226905,9.07368196 137.09006,9.07368196 L143.453595,9.07368196 L143.453595,40.1148112 C143.453595,69.0621744 133.401901,96.389115 114.385933,119.139376 C100.067897,136.269924 85.783162,144.777956 85.1823865,145.13168 L82.0079824,147.000068 L78.833411,145.13168 Z" id="Fill-1" fill="#1A1A1A" sketch:type="MSShapeGroup" mask="url(#mask-2)"></path>
                    </g>
                    <path d="M82.0082,7.16855169 C82.0082,7.16855169 62.7815429,15.5809219 26.9262898,15.5809219 L26.9262898,40.1145203 C26.9262898,107.06917 82.0082,139.491825 82.0082,139.491825 C82.0082,139.491825 137.09011,107.06917 137.09011,40.1145203 L137.09011,15.5809219 C101.235024,15.5809219 82.0082,7.16855169 82.0082,7.16855169" id="Fill-4" fill="#E6E6E6" sketch:type="MSShapeGroup"></path>
                    <path d="M82.0079322,134.352815 C72.1312833,127.61888 31.1680996,96.2863177 31.1680996,40.1148625 L31.1680996,19.8800302 C59.4445445,19.362022 76.7661241,13.7794446 82.0079322,11.8205284 C87.2507445,13.7794446 104.57132,19.362022 132.847765,19.8800302 L132.847765,40.1148625 C132.847765,96.2863177 91.8845812,127.61888 82.0079322,134.352815" id="Fill-6" fill="#E6E6E6" sketch:type="MSShapeGroup"></path>
                    <path d="M52.0480106,30.1645882 C52.0480106,28.3944276 53.4548963,26.9542041 55.184929,26.9542041 C56.9164678,26.9542041 58.3233535,28.3944276 58.3233535,30.1645882 C58.3233535,31.9347489 56.9164678,33.3734322 55.184929,33.3734322 C53.4548963,33.3734322 52.0480106,31.9347489 52.0480106,30.1645882 L52.0480106,30.1645882 Z M64.9692024,52.4625545 L66.8208963,52.8284288 C65.418529,54.697331 63.3161494,56.3867186 61.0417371,57.543381 C60.8564841,57.6272343 60.6391004,57.7333345 60.3790433,57.8644194 C60.2521943,57.9215766 60.1273535,57.9797605 59.9979943,58.0322972 C56.9536188,59.2209608 56.2718473,54.9793519 56.2718473,53.1309852 L56.2718473,38.0247244 L63.2728065,38.4878001 L63.2728065,36.1217675 L56.2718473,36.5899771 L56.2718473,34.8595184 C58.3556514,34.3567407 59.9074596,32.4472809 59.9074596,30.1640749 C59.9074596,27.4985661 57.7940351,25.335835 55.185431,25.335835 C52.577329,25.335835 50.4629004,27.4985661 50.4629004,30.1640749 C50.4629004,32.4488211 52.0173861,34.3593077 54.1020269,34.8605452 L54.1020269,36.5899771 L47.1010678,36.1217675 L47.1010678,38.4878001 L54.1020269,38.0247244 L54.1020269,53.1304718 C54.1020269,54.9793519 53.4207576,59.2214742 50.3728678,58.0317838 C50.2480269,57.9787338 50.1228514,57.9210632 49.9965045,57.8639061 C49.7332678,57.7328211 49.51488,57.626721 49.3292922,57.5408141 C47.0552147,56.3831249 44.9553453,54.6968176 43.552978,52.8279154 L45.4033331,52.4620411 L38.2572841,50.4098595 C39.4976596,53.5940609 41.8843616,55.9636872 41.8843616,55.9636872 L41.8843616,54.0865708 C42.934631,55.0322308 43.787431,55.7588455 43.787431,55.7588455 L43.787431,55.7562786 C48.3078065,59.2048746 54.9730678,61.8708967 55.1864351,61.8708967 C55.3998024,61.8708967 62.0637249,59.2048746 66.5859412,55.7562786 L66.5859412,55.7588455 C66.5859412,55.7588455 67.4384065,55.0322308 68.4875045,54.0865708 L68.4875045,55.9636872 C68.4875045,55.9636872 70.8752106,53.5940609 72.1150841,50.4098595 L64.9692024,52.4625545 Z" id="Fill-8" fill="#1A1A1A" sketch:type="MSShapeGroup"></path>
                    <path d="M82.0082,70.0215761 L128.727114,70.0215761 C131.289531,60.9844132 132.847865,51.0241792 132.847865,40.1148625 L132.847865,19.8800302 C104.571755,19.362022 87.2513469,13.7796157 82.0082,11.8205284 L82.0082,70.0215761 Z" id="Fill-10" fill="#1A1A1A" sketch:type="MSShapeGroup"></path>
                    <path d="M95.6703539,48.3202006 L95.6703539,29.3986139 L102.123921,29.3986139 L102.123921,47.7768653 C102.123921,51.369381 104.084558,53.1657244 107.148346,53.1657244 C110.211966,53.1657244 112.172603,51.369381 112.172603,47.7768653 L112.172603,29.3986139 L118.626338,29.3986139 L118.626338,48.3202006 C118.626338,55.7554229 113.52008,59.6816406 107.148346,59.6816406 C100.776444,59.6816406 95.6703539,55.7554229 95.6703539,48.3202006" id="Fill-12" fill="#E6E7E8" sketch:type="MSShapeGroup"></path>
                    <path d="M107.148312,57.512458 C102.625259,57.512458 97.7914429,55.0976536 97.7914429,48.3202519 L97.7914429,31.5677281 L100.002765,31.5677281 L100.002765,47.7769166 C100.002765,52.4391611 102.741231,55.3348386 107.148312,55.3348386 C111.555394,55.3348386 114.293859,52.4391611 114.293859,47.7769166 L114.293859,31.5677281 L116.505014,31.5677281 L116.505014,48.3202519 C116.505014,55.0976536 111.671365,57.512458 107.148312,57.512458" id="Fill-14" fill="#404041" sketch:type="MSShapeGroup"></path>
                </g>
                <g id="Group-41" transform="translate(35.142857, 69.991851)">
                    <g id="Group-19">
                        <mask id="mask-4" sketch:name="Clip 18" fill="white">
                            <use xlink:href="#path-3"></use>
                        </mask>
                        <g id="Clip-18"></g>
                        <path d="M55.9616196,8.16727893 C53.1483502,8.16727893 51.6213094,7.41790407 50.394489,6.81587148 C49.3912441,6.32353271 48.7285502,5.99821607 47.1221869,5.99821607 C45.515489,5.99821607 44.8527951,6.32353271 43.8495502,6.81587148 C42.6227298,7.41790407 41.095689,8.16727893 38.2825869,8.16727893 C35.4696522,8.16727893 33.9427788,7.41790407 32.7159584,6.81587148 C31.7130482,6.32353271 31.0505216,5.99821607 29.4443257,5.99821607 C27.8382971,5.99821607 27.1757706,6.32353271 26.1728604,6.81587148 C24.94604,7.41790407 23.4193339,8.16727893 20.6063992,8.16727893 C17.7934645,8.16727893 16.2667584,7.41790407 15.0401053,6.81587148 C14.0371951,6.32353271 13.3746686,5.99821607 11.7684727,5.99821607 C10.1624441,5.99821607 9.49991755,6.32353271 8.49700735,6.81587148 C7.27035429,7.41790407 5.74364816,8.16727893 2.93071347,8.16727893 C0.118113469,8.16727893 -1.40859265,7.41790407 -2.63507837,6.81587148 C-3.63798857,6.32353271 -4.30034776,5.99821607 -5.90604163,5.99821607 L-5.90604163,0.575473341 C-3.09344163,0.575473341 -1.56673551,1.3248482 -0.340082449,1.92705192 C0.662660408,2.41939069 1.32501959,2.7445362 2.93071347,2.7445362 C4.53674204,2.7445362 5.19926857,2.41939069 6.20217878,1.92705192 C7.42899918,1.3248482 8.95570531,0.575473341 11.7684727,0.575473341 C14.5814073,0.575473341 16.1081135,1.3248482 17.3349339,1.92705192 C18.3378441,2.41939069 19.0003706,2.7445362 20.6063992,2.7445362 C22.2125951,2.7445362 22.8751216,2.41939069 23.8780318,1.92705192 C25.1046849,1.3248482 26.631391,0.575473341 29.4443257,0.575473341 C32.2572604,0.575473341 33.7839665,1.3248482 35.0107869,1.92705192 C36.0136971,2.41939069 36.676391,2.7445362 38.2825869,2.7445362 C39.8891176,2.7445362 40.5518114,2.41939069 41.5550563,1.92688079 C42.7820441,1.3248482 44.3089176,0.575473341 47.1221869,0.575473341 C49.935289,0.575473341 51.4621624,1.3248482 52.6889829,1.92688079 C53.6922278,2.41921956 54.3549216,2.7445362 55.9616196,2.7445362 L55.9616196,8.16727893 Z" id="Fill-17" fill="#1A1A1A" sketch:type="MSShapeGroup" mask="url(#mask-4)"></path>
                    </g>
                    <g id="Group-22">
                        <mask id="mask-6" sketch:name="Clip 21" fill="white">
                            <use xlink:href="#path-5"></use>
                        </mask>
                        <g id="Clip-21"></g>
                        <path d="M55.9616196,16.5541166 C53.1483502,16.5541166 51.6214767,15.8049129 50.394489,15.2028803 C49.3914114,14.7105416 48.7285502,14.3850538 47.1221869,14.3850538 C45.515489,14.3850538 44.8527951,14.7105416 43.8495502,15.2028803 C42.6227298,15.8049129 41.095689,16.5541166 38.2825869,16.5541166 C35.4696522,16.5541166 33.9427788,15.8047418 32.7161257,15.2027092 C31.7130482,14.7105416 31.0505216,14.3850538 29.4443257,14.3850538 C27.8382971,14.3850538 27.1756033,14.7103704 26.1728604,15.2027092 C24.94604,15.8047418 23.4193339,16.5541166 20.6063992,16.5541166 C17.7936318,16.5541166 16.2667584,15.8047418 15.0401053,15.2027092 C14.0371951,14.7103704 13.3746686,14.3850538 11.7684727,14.3850538 C10.1624441,14.3850538 9.49991755,14.7103704 8.49700735,15.2027092 C7.27035429,15.8047418 5.74364816,16.5541166 2.93071347,16.5541166 C0.118113469,16.5541166 -1.40842531,15.8047418 -2.63507837,15.2027092 C-3.63782122,14.7103704 -4.30034776,14.3850538 -5.90604163,14.3850538 L-5.90604163,8.96248219 C-3.09344163,8.96248219 -1.56690286,9.71185704 -0.340082449,10.3138896 C0.662493061,10.8062284 1.32501959,11.1315451 2.93071347,11.1315451 C4.53674204,11.1315451 5.19943592,10.8062284 6.20217878,10.3138896 C7.42899918,9.71185704 8.95570531,8.96248219 11.7684727,8.96248219 C14.5814073,8.96248219 16.1081135,9.71185704 17.3347665,10.3138896 C18.3376767,10.8062284 19.0003706,11.1315451 20.6063992,11.1315451 C22.2125951,11.1315451 22.8751216,10.8062284 23.8780318,10.3138896 C25.1046849,9.71185704 26.631391,8.96248219 29.4443257,8.96248219 C32.2572604,8.96248219 33.7839665,9.71185704 35.0107869,10.3138896 C36.0136971,10.8060573 36.676391,11.1315451 38.2825869,11.1315451 C39.8891176,11.1315451 40.5518114,10.8060573 41.5552237,10.3137185 C42.7820441,9.71168591 44.3089176,8.96248219 47.1221869,8.96248219 C49.9351216,8.96248219 51.4619951,9.71168591 52.6889829,10.3137185 C53.6920604,10.8060573 54.3549216,11.1315451 55.9616196,11.1315451 L55.9616196,16.5541166 Z" id="Fill-20" fill="#1F1F1F" sketch:type="MSShapeGroup" mask="url(#mask-6)"></path>
                    </g>
                    <g id="Group-25">
                        <mask id="mask-8" sketch:name="Clip 24" fill="white">
                            <use xlink:href="#path-7"></use>
                        </mask>
                        <g id="Clip-24"></g>
                        <path d="M55.9616196,24.9411084 C53.1481829,24.9411084 51.6213094,24.1917335 50.394489,23.5897009 C49.3912441,23.0973622 48.7285502,22.7718744 47.1221869,22.7718744 C45.515489,22.7718744 44.8527951,23.0973622 43.8495502,23.5897009 C42.6227298,24.1917335 41.095689,24.9411084 38.2825869,24.9411084 C35.4694849,24.9411084 33.9427788,24.1917335 32.7159584,23.5897009 C31.7130482,23.0973622 31.0505216,22.7718744 29.4443257,22.7718744 C27.8382971,22.7718744 27.1757706,23.0973622 26.1728604,23.5895298 C24.9462073,24.1917335 23.4195012,24.9411084 20.6063992,24.9411084 C17.7934645,24.9411084 16.2667584,24.1917335 15.0401053,23.5895298 C14.0371951,23.0973622 13.3746686,22.7718744 11.7684727,22.7718744 C10.1624441,22.7718744 9.49991755,23.0973622 8.49717469,23.5895298 C7.27035429,24.1917335 5.74364816,24.9411084 2.93071347,24.9411084 C0.117946122,24.9411084 -1.40859265,24.1917335 -2.63524571,23.5895298 C-3.63798857,23.097191 -4.30034776,22.7718744 -5.90604163,22.7718744 L-5.90604163,17.3493028 C-3.09344163,17.3493028 -1.56673551,18.0986776 -0.340082449,18.7008814 C0.662660408,19.1932201 1.32501959,19.5185368 2.93071347,19.5185368 C4.53674204,19.5185368 5.19926857,19.193049 6.20217878,18.7008814 C7.42883184,18.0986776 8.95570531,17.3493028 11.7684727,17.3493028 C14.5814073,17.3493028 16.1081135,18.0986776 17.3349339,18.7007102 C18.3378441,19.193049 19.0003706,19.5185368 20.6063992,19.5185368 C22.2124278,19.5185368 22.8751216,19.193049 23.8780318,18.7008814 C25.1046849,18.0986776 26.631391,17.3493028 29.4443257,17.3493028 C32.2572604,17.3493028 33.7841339,18.0986776 35.0107869,18.7007102 C36.0136971,19.193049 36.676391,19.5185368 38.2825869,19.5185368 C39.8891176,19.5185368 40.5518114,19.193049 41.5550563,18.7007102 C42.7820441,18.0986776 44.3089176,17.3493028 47.1221869,17.3493028 C49.935289,17.3493028 51.4621624,18.0986776 52.6889829,18.7007102 C53.6922278,19.193049 54.3549216,19.5185368 55.9616196,19.5185368 L55.9616196,24.9411084 Z" id="Fill-23" fill="#252525" sketch:type="MSShapeGroup" mask="url(#mask-8)"></path>
                    </g>
                    <g id="Group-28">
                        <mask id="mask-10" sketch:name="Clip 27" fill="white">
                            <use xlink:href="#path-9"></use>
                        </mask>
                        <g id="Clip-27"></g>
                        <path d="M55.9616196,33.3279461 C53.1481829,33.3279461 51.6213094,32.5785712 50.394489,31.9765386 C49.3912441,31.4841999 48.7285502,31.1587121 47.1221869,31.1587121 C45.515489,31.1587121 44.8527951,31.4841999 43.8495502,31.9765386 C42.6227298,32.5785712 41.095689,33.3279461 38.2825869,33.3279461 C35.4694849,33.3279461 33.9427788,32.5785712 32.7159584,31.9765386 C31.7130482,31.4841999 31.0505216,31.1587121 29.4443257,31.1587121 C27.8382971,31.1587121 27.1757706,31.4841999 26.1728604,31.9763675 C24.9462073,32.5785712 23.4195012,33.3279461 20.6063992,33.3279461 C17.7934645,33.3279461 16.2667584,32.5785712 15.0401053,31.9763675 C14.0371951,31.4841999 13.3746686,31.1587121 11.7684727,31.1587121 C10.1624441,31.1587121 9.49991755,31.4841999 8.49717469,31.9763675 C7.27035429,32.5785712 5.74364816,33.3279461 2.93071347,33.3279461 C0.117946122,33.3279461 -1.40859265,32.5785712 -2.63524571,31.9763675 C-3.63798857,31.4840288 -4.30034776,31.1587121 -5.90604163,31.1587121 L-5.90604163,25.7361405 C-3.09344163,25.7361405 -1.56673551,26.4855154 -0.340082449,27.0877191 C0.662660408,27.5800579 1.32501959,27.9053745 2.93071347,27.9053745 C4.53674204,27.9053745 5.19926857,27.5798867 6.20217878,27.0877191 C7.42883184,26.4855154 8.95570531,25.7361405 11.7684727,25.7361405 C14.5814073,25.7361405 16.1081135,26.4855154 17.3349339,27.087548 C18.3378441,27.5798867 19.0003706,27.9053745 20.6063992,27.9053745 C22.2124278,27.9053745 22.8751216,27.5798867 23.8780318,27.0877191 C25.1046849,26.4855154 26.631391,25.7361405 29.4443257,25.7361405 C32.2572604,25.7361405 33.7841339,26.4855154 35.0107869,27.087548 C36.0136971,27.5798867 36.676391,27.9053745 38.2825869,27.9053745 C39.8891176,27.9053745 40.5518114,27.5798867 41.5550563,27.087548 C42.7820441,26.4855154 44.3089176,25.7361405 47.1221869,25.7361405 C49.935289,25.7361405 51.4621624,26.4855154 52.6889829,27.087548 C53.6922278,27.5798867 54.3549216,27.9053745 55.9616196,27.9053745 L55.9616196,33.3279461 Z" id="Fill-26" fill="#2A2A2B" sketch:type="MSShapeGroup" mask="url(#mask-10)"></path>
                    </g>
                    <g id="Group-31">
                        <mask id="mask-12" sketch:name="Clip 30" fill="white">
                            <use xlink:href="#path-11"></use>
                        </mask>
                        <g id="Clip-30"></g>
                        <path d="M55.9616196,41.7147838 C53.1481829,41.7147838 51.6213094,40.965409 50.394489,40.3633764 C49.3912441,39.8710376 48.7285502,39.5455498 47.1221869,39.5455498 C45.515489,39.5455498 44.8527951,39.8710376 43.8495502,40.3633764 C42.6227298,40.965409 41.095689,41.7147838 38.2825869,41.7147838 C35.4694849,41.7147838 33.9427788,40.965409 32.7159584,40.3633764 C31.7130482,39.8710376 31.0505216,39.5455498 29.4443257,39.5455498 C27.8382971,39.5455498 27.1757706,39.8710376 26.1728604,40.3632052 C24.9462073,40.965409 23.4195012,41.7147838 20.6063992,41.7147838 C17.7934645,41.7147838 16.2667584,40.965409 15.0401053,40.3632052 C14.0371951,39.8710376 13.3746686,39.5455498 11.7684727,39.5455498 C10.1624441,39.5455498 9.49991755,39.8710376 8.49717469,40.3632052 C7.27035429,40.965409 5.74364816,41.7147838 2.93071347,41.7147838 C0.117946122,41.7147838 -1.40859265,40.965409 -2.63524571,40.3632052 C-3.63798857,39.8708665 -4.30034776,39.5455498 -5.90604163,39.5455498 L-5.90604163,34.1229782 C-3.09344163,34.1229782 -1.56673551,34.8723531 -0.340082449,35.4745568 C0.662660408,35.9668956 1.32501959,36.2922122 2.93071347,36.2922122 C4.53674204,36.2922122 5.19926857,35.9667244 6.20217878,35.4745568 C7.42883184,34.8723531 8.95570531,34.1229782 11.7684727,34.1229782 C14.5814073,34.1229782 16.1081135,34.8723531 17.3349339,35.4743857 C18.3378441,35.9667244 19.0003706,36.2922122 20.6063992,36.2922122 C22.2124278,36.2922122 22.8751216,35.9667244 23.8780318,35.4745568 C25.1046849,34.8723531 26.631391,34.1229782 29.4443257,34.1229782 C32.2572604,34.1229782 33.7841339,34.8723531 35.0107869,35.4743857 C36.0136971,35.9667244 36.676391,36.2922122 38.2825869,36.2922122 C39.8891176,36.2922122 40.5518114,35.9667244 41.5550563,35.4743857 C42.7820441,34.8723531 44.3089176,34.1229782 47.1221869,34.1229782 C49.935289,34.1229782 51.4621624,34.8723531 52.6889829,35.4743857 C53.6922278,35.9667244 54.3549216,36.2922122 55.9616196,36.2922122 L55.9616196,41.7147838 Z" id="Fill-29" fill="#303030" sketch:type="MSShapeGroup" mask="url(#mask-12)"></path>
                    </g>
                    <g id="Group-34">
                        <mask id="mask-14" sketch:name="Clip 33" fill="white">
                            <use xlink:href="#path-13"></use>
                        </mask>
                        <g id="Clip-33"></g>
                        <path d="M55.9616196,50.1016215 C53.1483502,50.1016215 51.6214767,49.3522467 50.394489,48.7503852 C49.3914114,48.2580464 48.7285502,47.9325587 47.1221869,47.9325587 C45.515489,47.9325587 44.8527951,48.2580464 43.8495502,48.7503852 C42.6227298,49.3524178 41.095689,50.1016215 38.2825869,50.1016215 C35.4696522,50.1016215 33.9427788,49.3522467 32.7161257,48.7502141 C31.7130482,48.2578753 31.0505216,47.9325587 29.4443257,47.9325587 C27.8382971,47.9325587 27.1756033,48.2578753 26.1728604,48.7502141 C24.94604,49.3522467 23.4193339,50.1016215 20.6063992,50.1016215 C17.7936318,50.1016215 16.2667584,49.3522467 15.0401053,48.7502141 C14.0371951,48.2578753 13.3746686,47.9325587 11.7684727,47.9325587 C10.1624441,47.9325587 9.49991755,48.2578753 8.49700735,48.7502141 C7.27035429,49.3522467 5.74364816,50.1016215 2.93071347,50.1016215 C0.118113469,50.1016215 -1.40842531,49.3522467 -2.63507837,48.7502141 C-3.63782122,48.2578753 -4.30034776,47.9325587 -5.90604163,47.9325587 L-5.90604163,42.5099871 C-3.09344163,42.5099871 -1.56690286,43.2593619 -0.340082449,43.8613945 C0.662493061,44.3537333 1.32501959,44.6790499 2.93071347,44.6790499 C4.53674204,44.6790499 5.19943592,44.3537333 6.20217878,43.8613945 C7.42899918,43.2593619 8.95570531,42.5099871 11.7684727,42.5099871 C14.5814073,42.5099871 16.1081135,43.2593619 17.3347665,43.8613945 C18.3376767,44.3535622 19.0003706,44.6790499 20.6063992,44.6790499 C22.2125951,44.6790499 22.8751216,44.3537333 23.8780318,43.8613945 C25.1046849,43.2593619 26.631391,42.5099871 29.4443257,42.5099871 C32.2572604,42.5099871 33.7839665,43.2593619 35.0107869,43.8613945 C36.0136971,44.3535622 36.676391,44.6790499 38.2825869,44.6790499 C39.8891176,44.6790499 40.5518114,44.3535622 41.5552237,43.8612234 C42.7820441,43.2591908 44.3089176,42.5099871 47.1221869,42.5099871 C49.9351216,42.5099871 51.4619951,43.2591908 52.6889829,43.8612234 C53.6920604,44.3535622 54.3549216,44.6790499 55.9616196,44.6790499 L55.9616196,50.1016215 Z" id="Fill-32" fill="#353536" sketch:type="MSShapeGroup" mask="url(#mask-14)"></path>
                    </g>
                    <g id="Group-37">
                        <mask id="mask-16" sketch:name="Clip 36" fill="white">
                            <use xlink:href="#path-15"></use>
                        </mask>
                        <g id="Clip-36"></g>
                        <path d="M55.9616196,58.4884593 C53.1483502,58.4884593 51.6214767,57.7392555 50.394489,57.1372229 C49.3914114,56.6448842 48.7285502,56.3193964 47.1221869,56.3193964 C45.515489,56.3193964 44.8527951,56.6448842 43.8495502,57.1372229 C42.6227298,57.7392555 41.095689,58.4884593 38.2825869,58.4884593 C35.4696522,58.4884593 33.9427788,57.7390844 32.7161257,57.1370518 C31.7130482,56.6448842 31.0505216,56.3193964 29.4443257,56.3193964 C27.8382971,56.3193964 27.1756033,56.644713 26.1728604,57.1370518 C24.94604,57.7390844 23.4193339,58.4884593 20.6063992,58.4884593 C17.7936318,58.4884593 16.2667584,57.7390844 15.0401053,57.1370518 C14.0371951,56.644713 13.3746686,56.3193964 11.7684727,56.3193964 C10.1624441,56.3193964 9.49991755,56.644713 8.49700735,57.1370518 C7.27035429,57.7390844 5.74364816,58.4884593 2.93071347,58.4884593 C0.118113469,58.4884593 -1.40842531,57.7390844 -2.63507837,57.1370518 C-3.63782122,56.644713 -4.30034776,56.3193964 -5.90604163,56.3193964 L-5.90604163,50.8968248 C-3.09344163,50.8968248 -1.56690286,51.6461997 -0.340082449,52.2482322 C0.662493061,52.740571 1.32501959,53.0658877 2.93071347,53.0658877 C4.53674204,53.0658877 5.19943592,52.740571 6.20217878,52.2482322 C7.42899918,51.6461997 8.95570531,50.8968248 11.7684727,50.8968248 C14.5814073,50.8968248 16.1081135,51.6461997 17.3347665,52.2482322 C18.3376767,52.740571 19.0003706,53.0658877 20.6063992,53.0658877 C22.2125951,53.0658877 22.8751216,52.740571 23.8780318,52.2482322 C25.1046849,51.6461997 26.631391,50.8968248 29.4443257,50.8968248 C32.2572604,50.8968248 33.7839665,51.6461997 35.0107869,52.2482322 C36.0136971,52.7403999 36.676391,53.0658877 38.2825869,53.0658877 C39.8891176,53.0658877 40.5518114,52.7403999 41.5552237,52.2480611 C42.7820441,51.6460285 44.3089176,50.8968248 47.1221869,50.8968248 C49.9351216,50.8968248 51.4619951,51.6460285 52.6889829,52.2480611 C53.6920604,52.7403999 54.3549216,53.0658877 55.9616196,53.0658877 L55.9616196,58.4884593 Z" id="Fill-35" fill="#3B3B3B" sketch:type="MSShapeGroup" mask="url(#mask-16)"></path>
                    </g>
                    <g id="Group-40">
                        <mask id="mask-18" sketch:name="Clip 39" fill="white">
                            <use xlink:href="#path-17"></use>
                        </mask>
                        <g id="Clip-39"></g>
                        <path d="M55.9616196,66.875297 C53.1483502,66.875297 51.6214767,66.1259221 50.394489,65.5240607 C49.3914114,65.0317219 48.7285502,64.7062341 47.1221869,64.7062341 C45.515489,64.7062341 44.8527951,65.0317219 43.8495502,65.5240607 C42.6227298,66.1260932 41.095689,66.875297 38.2825869,66.875297 C35.4696522,66.875297 33.9427788,66.1259221 32.7161257,65.5238895 C31.7130482,65.0315508 31.0505216,64.7062341 29.4443257,64.7062341 C27.8382971,64.7062341 27.1756033,65.0315508 26.1728604,65.5238895 C24.94604,66.1259221 23.4193339,66.875297 20.6063992,66.875297 C17.7936318,66.875297 16.2667584,66.1259221 15.0401053,65.5238895 C14.0371951,65.0315508 13.3746686,64.7062341 11.7684727,64.7062341 C10.1624441,64.7062341 9.49991755,65.0315508 8.49700735,65.5238895 C7.27035429,66.1259221 5.74364816,66.875297 2.93071347,66.875297 C0.118113469,66.875297 -1.40842531,66.1259221 -2.63507837,65.5238895 C-3.63782122,65.0315508 -4.30034776,64.7062341 -5.90604163,64.7062341 L-5.90604163,59.2836625 C-3.09344163,59.2836625 -1.56690286,60.0330374 -0.340082449,60.63507 C0.662493061,61.1274087 1.32501959,61.4527254 2.93071347,61.4527254 C4.53674204,61.4527254 5.19943592,61.1274087 6.20217878,60.63507 C7.42899918,60.0330374 8.95570531,59.2836625 11.7684727,59.2836625 C14.5814073,59.2836625 16.1081135,60.0330374 17.3347665,60.63507 C18.3376767,61.1272376 19.0003706,61.4527254 20.6063992,61.4527254 C22.2125951,61.4527254 22.8751216,61.1274087 23.8780318,60.63507 C25.1046849,60.0330374 26.631391,59.2836625 29.4443257,59.2836625 C32.2572604,59.2836625 33.7839665,60.0330374 35.0107869,60.63507 C36.0136971,61.1272376 36.676391,61.4527254 38.2825869,61.4527254 C39.8891176,61.4527254 40.5518114,61.1272376 41.5552237,60.6348988 C42.7820441,60.0328662 44.3089176,59.2836625 47.1221869,59.2836625 C49.9351216,59.2836625 51.4619951,60.0328662 52.6889829,60.6348988 C53.6920604,61.1272376 54.3549216,61.4527254 55.9616196,61.4527254 L55.9616196,66.875297 Z" id="Fill-38" fill="#404041" sketch:type="MSShapeGroup" mask="url(#mask-18)"></path>
                    </g>
                </g>
                <g id="Group-79">
                    <path d="M110.241904,95.8504173 L108.2401,95.9376932 C107.967994,95.4927573 107.41006,94.6482346 106.66386,93.8694255 C105.96619,93.1410995 105.3045,92.6208667 104.925125,92.3451775 C104.840447,91.7660763 104.667578,90.7757515 104.398317,90.099791 C104.178088,89.5484127 103.874186,88.9041112 103.649607,88.4458271 C103.670525,88.4415489 103.694958,88.4376129 103.717382,88.4333347 C104.736692,88.9212241 105.697096,89.5545733 106.573994,90.324826 C108.281602,91.8261426 109.532856,93.7268749 110.241904,95.8504173 L110.241904,95.8504173 Z M109.491019,105.9135 C109.422909,105.917436 109.355802,105.920516 109.292378,105.923083 C108.882545,105.937458 108.507186,105.928902 108.254158,105.918292 C108.181027,105.227614 108.040623,104.092343 107.830937,103.218215 C107.605688,102.276833 107.1905,101.2261 106.958223,100.672154 C107.16908,100.297552 107.502435,99.6488015 107.777553,98.8633184 C108.081288,97.9974045 108.274407,97.0804942 108.364941,96.5970541 L110.442386,96.5070402 C110.6673,97.3224709 110.814398,98.1669936 110.878325,99.031025 C111.056884,101.451477 110.570741,103.818023 109.491019,105.9135 L109.491019,105.9135 Z M94.6632433,112.142946 L94.6706065,110.725825 C95.0203616,110.710081 95.6653167,110.626228 96.6675576,110.295948 C97.6194269,109.982611 98.3008637,109.700932 98.7048392,109.520391 C99.1111576,109.740805 99.9467208,110.112327 101.339884,110.38408 C102.223141,110.556236 103.005823,110.624345 103.664835,110.585841 C103.726419,110.582076 103.783317,110.577969 103.837202,110.572835 L103.948488,111.437038 C102.540264,112.144657 100.998831,112.577956 99.3871127,112.702367 C97.7651861,112.827805 96.1678596,112.63306 94.6632433,112.142946 L94.6632433,112.142946 Z M87.8197576,106.661848 C88.0222473,106.740568 88.2563657,106.824763 88.5323208,106.914435 C89.645178,107.2774 90.3132269,107.42286 90.71168,107.471289 C90.9980106,107.883197 91.48248,108.529724 92.0784024,109.125595 C92.7675371,109.815417 93.6184963,110.327265 94.0557739,110.566675 C94.033182,110.611682 94.0202963,110.662336 94.0202963,110.716242 L94.0142718,111.911237 C92.6828596,111.392031 91.4354555,110.635811 90.3229331,109.657636 C89.3273861,108.783508 88.4879739,107.772648 87.8197576,106.661848 L87.8197576,106.661848 Z M86.2281208,97.4496199 C86.5467494,95.8350157 87.1717902,94.2982753 88.0791453,92.9140111 C87.9820841,93.1604371 87.8871984,93.4364686 87.8057004,93.7381694 C87.6100718,94.463415 87.5304147,95.1431403 87.4979494,95.5914988 C87.2250065,95.933415 86.6458188,96.6887794 86.2281208,97.4496199 L86.2281208,97.4496199 Z M86.5634841,98.2451997 C86.8601902,97.5509284 87.4447331,96.7353265 87.8140678,96.2532555 L90.6439045,97.2754104 C90.7396269,98.0150308 90.9193576,99.2036944 91.1991616,100.299264 C91.5427249,101.64588 92.069031,102.883657 92.2984637,103.392595 L90.5657535,106.777531 C90.2128188,106.714727 89.6383167,106.577481 88.7301249,106.281257 C87.8426841,105.991364 87.4507576,105.78464 87.2832433,105.673577 C86.575031,104.217781 86.1414351,102.621145 86.0186024,100.951437 C85.9921616,100.594633 85.9811167,100.239368 85.9836269,99.8859866 C86.1553249,99.3332392 86.3633371,98.7139226 86.5634841,98.2451997 L86.5634841,98.2451997 Z M95.1110637,87.7936537 C94.2626147,88.2996828 93.5542351,89.1744953 93.2237249,89.6237095 C92.7695453,89.6175489 91.9348188,89.6913056 90.8950922,90.1653335 C90.5302759,90.3318423 90.2193453,90.4995489 89.9557739,90.6595547 C91.5030637,89.1815116 93.3726637,88.1437841 95.4159698,87.624578 C95.3103739,87.6793393 95.2079576,87.7359831 95.1110637,87.7936537 L95.1110637,87.7936537 Z M100.666982,94.304436 C99.9827004,94.0540739 98.6655127,93.592025 97.5938229,93.3315664 C96.0930555,92.9667189 94.8205494,92.9193161 94.7669984,92.9174336 C94.7551167,92.9170914 94.6219086,92.9016898 94.6101943,92.9027165 C94.5832514,92.9047701 94.6419902,92.9263324 94.6547086,92.9340332 L93.7261004,90.0477678 C94.0174514,89.6486944 94.6769657,88.8224825 95.4385616,88.3681345 C96.4215576,87.7818458 98.0742759,87.3189412 98.2913249,87.2599016 C98.7784718,87.2823196 99.6635698,87.3608679 100.768562,87.6247491 C101.740513,87.8574849 102.43199,88.1179435 102.847345,88.300025 C103.026407,88.6547759 103.49866,89.6065966 103.795533,90.351351 C104.018774,90.9106013 104.174072,91.7467386 104.259921,92.3041065 L100.666982,94.304436 Z M97.6701331,104.339625 C97.2234841,104.286746 96.4250718,104.169693 95.295982,103.923781 C94.1951739,103.683857 93.4004433,103.410906 92.9422473,103.231221 C92.7668678,102.849089 92.1863412,101.535159 91.8280514,100.130701 C91.5293371,98.9586374 91.3440841,97.6411135 91.2604106,96.9555698 C91.560129,96.5241531 92.0864351,95.8220099 92.8100433,95.065961 C93.5880392,94.2534395 94.1853004,93.7237945 94.5020882,93.4564907 C94.3859494,93.4520413 94.1635453,93.5425687 94.2626147,93.545649 C94.2749984,93.5459913 96.009382,93.6286467 97.443378,93.9777503 C98.4431086,94.221096 99.699382,94.6583312 100.388349,94.9086932 L101.76528,99.7329971 L97.6701331,104.339625 Z M106.140566,108.230419 C105.407084,108.996393 104.674774,109.53699 104.223774,109.836466 C104.111819,109.868639 103.260023,110.08101 101.461043,109.730537 C100.203933,109.48548 99.4404963,109.157425 99.0676473,108.963194 L98.1710024,104.76471 L102.271504,100.152435 L106.365145,100.946132 C106.589558,101.483991 106.988513,102.496392 107.199537,103.377194 C107.440015,104.380182 107.59046,105.795592 107.643676,106.352618 C107.359186,106.785746 106.856978,107.482242 106.140566,108.230419 L106.140566,108.230419 Z M89.4754882,110.666785 C92.2636555,113.117869 95.8184392,114.311666 99.4850106,114.028619 C103.15108,113.744886 106.490488,112.018877 108.887398,109.167522 C111.284309,106.316167 112.451721,102.680527 112.174594,98.9314278 C111.897635,95.1821577 110.209439,91.7676164 107.421272,89.3167037 C104.632937,86.8651065 101.077986,85.6714802 97.4114147,85.9546991 C93.7448433,86.2377468 90.4056024,87.9644406 88.0090269,90.8154534 C85.6121167,93.6669796 84.4448718,97.3021065 84.721329,101.051548 C84.9982882,104.800989 86.6864841,108.215701 89.4754882,110.666785 L89.4754882,110.666785 Z" id="Fill-42" fill="#1A1A1A" sketch:type="MSShapeGroup"></path>
                    <path d="M156.128218,97.8689549 C108.582275,78.0497955 55.3358257,78.0497955 7.78988286,97.8689549 C5.65420122,92.5107279 3.51835224,87.1526721 1.38250327,81.7944451 C53.0358094,60.2631377 110.882291,60.2631377 162.535597,81.7944451 C160.399916,87.1526721 158.264067,92.5107279 156.128218,97.8689549" id="Fill-44" fill="#E6E7E8" sketch:type="MSShapeGroup"></path>
                    <g id="Group-48">
                        <mask id="mask-20" sketch:name="Clip 47" fill="white">
                            <use xlink:href="#path-19"></use>
                        </mask>
                        <g id="Clip-47"></g>
                        <path d="M2.76596041,82.3918914 L8.37275224,96.4578576 C19.9134992,91.7216853 31.9402216,88.0887831 44.1369686,85.6561813 C56.5666624,83.1770322 69.291891,81.919917 81.9592176,81.919917 C94.6263767,81.919917 107.351438,83.1770322 119.781132,85.6561813 C131.978046,88.0887831 144.004601,91.7216853 155.545348,96.4578576 L161.152307,82.3918914 C148.720773,77.2843687 135.76494,73.3684187 122.624858,70.7477459 C109.260867,68.082066 95.5787482,66.7304874 81.9590502,66.7304874 C68.3393522,66.7304874 54.6574012,68.082066 41.293242,70.7475747 C28.1531604,73.3684187 15.1973278,77.2843687 2.76596041,82.3918914 L2.76596041,82.3918914 Z M156.710083,99.2825165 L155.727924,98.8733466 C144.014642,93.9906877 131.783756,90.2602418 119.375148,87.7851999 C107.07883,85.332747 94.490491,84.089151 81.9592176,84.089151 C69.4277767,84.089151 56.8392706,85.332747 44.5431196,87.7851999 C32.1343441,90.2602418 19.9034584,93.9906877 8.19034408,98.8733466 L7.2081849,99.2825165 L5.02040816e-05,81.199463 L0.982209388,80.7901219 C13.8398094,75.4305258 27.2657196,71.3354036 40.887091,68.6185561 C54.3847931,65.9265224 68.2032992,64.5614246 81.9590502,64.5614246 C95.7148012,64.5614246 109.533307,65.9265224 123.031009,68.6187272 C136.652381,71.3354036 150.078291,75.4305258 162.936058,80.7901219 L163.91805,81.199463 L156.710083,99.2825165 Z" id="Fill-46" fill="#1A1A1A" sketch:type="MSShapeGroup" mask="url(#mask-20)"></path>
                    </g>
                    <path d="M10.7022886,88.8145935 C10.6130927,88.5703921 10.5528478,88.3044573 10.5101743,88.0195271 C10.2792355,86.4213513 10.0553253,84.8214643 9.83877837,83.2195236 C10.5448151,82.9542733 11.2518559,82.692959 11.9599008,82.4357518 C12.1578722,83.9983327 12.3627049,85.5592023 12.5743988,87.1183607 C12.6105457,87.3587972 12.6535539,87.58503 12.7184845,87.7684806 C13.0073253,88.5852803 13.5573947,88.8402629 14.6724273,88.4379381 C16.0458437,87.945257 16.2749416,87.3423688 16.1189743,85.9979776 C15.92686,84.3883362 15.7417743,82.7769835 15.5640518,81.1640906 C16.2752763,80.9204026 16.9876722,80.6808217 17.7010722,80.4453478 C17.8679171,82.1302861 18.0426273,83.8135132 18.2252029,85.4952 C18.5106967,88.1184398 17.4713049,89.3514258 15.1542192,90.1848251 C13.0208804,90.95542 11.3231457,90.5014142 10.7022886,88.8145935" id="Fill-49" fill="#1A1A1A" sketch:type="MSShapeGroup"></path>
                    <path d="M21.9574078,79.0906718 C22.8274445,78.8242236 23.6986527,78.5635938 24.5711996,78.3089536 C25.8621139,79.8872783 27.1332812,81.4763843 28.3845343,83.0759291 C28.2332527,81.1695496 28.0913424,79.2614588 27.958469,77.3516567 C28.6385669,77.1658104 29.3193343,76.9833866 30.000771,76.8047277 C30.1115547,79.5973854 30.2439261,82.3867917 30.3978853,85.1729466 C29.6205588,85.3837778 28.8442363,85.5994006 28.0690853,85.8199861 C26.7465424,84.1434332 25.4019098,82.4786881 24.0353547,80.8262644 C24.2214445,82.8308721 24.4177424,84.8334262 24.6242486,86.8339268 C23.9741057,87.0317522 23.3246322,87.232829 22.6759955,87.4374995 C22.4149343,84.6595589 22.1754608,81.8771689 21.9574078,79.0906718" id="Fill-51" fill="#1A1A1A" sketch:type="MSShapeGroup"></path>
                    <path d="M33.8707694,82.7568244 C34.2949939,82.2302598 34.7225653,81.7050643 35.153651,81.1812377 C35.7828755,81.7317604 36.8035245,81.9988931 38.0467449,81.7165299 C39.1915653,81.4574403 39.6899245,81.0850631 39.5841612,80.5752692 C39.4673531,80.0139653 39.0991898,80.0230352 37.5863735,80.1322156 C35.5459122,80.2754508 34.2016143,80.098332 33.8113612,78.4418012 C33.3650469,76.5562994 34.7752796,75.4549118 37.1102714,74.9302296 C39.0680633,74.492481 40.2992347,74.8162575 41.2321939,75.5538244 C40.7999367,76.0550619 40.3708592,76.5576685 39.9449612,77.061644 C39.5583898,76.6567523 38.6985612,76.261786 37.3879,76.5556149 C36.2588102,76.8102552 35.7659735,77.2057348 35.8725735,77.6809607 C35.9883776,78.2006801 36.3784633,78.2485963 37.9848265,78.1320573 C39.9267204,77.9869397 41.3464918,78.152935 41.6778388,79.8430072 C42.0224061,81.6112854 40.8472959,82.8151795 38.3074714,83.3905159 C36.2348796,83.8636882 34.8443939,83.5195474 33.8707694,82.7568244" id="Fill-53" fill="#1A1A1A" sketch:type="MSShapeGroup"></path>
                    <path d="M47.168291,74.7730132 C46.2557482,74.9316499 45.344042,75.0966185 44.4331727,75.2679189 C44.4480665,74.6990853 44.4637971,74.1300807 44.4805318,73.5612471 C47.0029522,73.0913263 49.5317318,72.6693217 52.0656992,72.295062 C52.0283808,72.8630399 51.9924012,73.4310178 51.957091,73.9989957 C51.0875563,74.1288828 50.218691,74.2644171 49.3506624,74.4057698 C49.2415522,76.6273694 49.1464992,78.8482844 49.0650012,81.0681726 C48.3599686,81.187792 47.6556053,81.3111761 46.9515767,81.4384963 C47.0099808,79.2175813 47.0821073,76.9958106 47.168291,74.7730132" id="Fill-55" fill="#1A1A1A" sketch:type="MSShapeGroup"></path>
                    <path d="M61.819482,74.7875078 C61.6914616,73.4381539 60.7230249,72.8580258 59.5090902,72.9932179 C57.985229,73.1629781 57.0362045,74.4425113 57.2484004,76.1964147 C57.4025269,77.4778303 58.3232698,78.0822587 59.5164535,77.9462109 C60.9979759,77.7776487 61.982478,76.5153995 61.819482,74.7875078 M54.9900535,76.5231003 C54.631931,73.859474 56.6318943,71.499431 59.4801392,71.1854088 C61.9431514,70.9133134 63.9185147,72.2369979 64.1012576,74.4729723 C64.3159637,77.1234217 62.4691229,79.4422226 59.5922616,79.7711329 C57.021478,80.0673576 55.2765514,78.6748792 54.9900535,76.5231003" id="Fill-57" fill="#1A1A1A" sketch:type="MSShapeGroup"></path>
                    <path d="M72.379191,73.841882 C73.3449502,73.7963616 73.6445012,73.2975199 73.6214073,72.7009634 C73.6066808,72.3111311 73.3061257,71.9859856 72.6178278,72.0173022 C71.894889,72.0506724 71.1722849,72.0878075 70.4496808,72.1288785 C70.3563012,72.7389541 70.2639257,73.3490298 70.1727216,73.9591055 C70.9080441,73.9159809 71.6435339,73.8769634 72.379191,73.841882 M68.4851951,70.5437085 C69.9565094,70.4465071 71.4284931,70.3653919 72.9009788,70.3001916 C74.7896563,70.2178785 75.7442033,71.2044384 75.7798482,72.5039937 C75.8225216,74.0891637 74.7520033,75.3926549 72.4883012,75.4978994 C71.6344971,75.538457 70.7808604,75.5843197 69.9275584,75.6360007 C69.7826359,76.6552463 69.6407257,77.674492 69.5018278,78.6939087 C68.7904359,78.7390868 68.0793788,78.7880298 67.3686563,78.8409087 C67.7189135,76.0744338 68.0912604,73.3086433 68.4851951,70.5437085" id="Fill-59" fill="#1A1A1A" sketch:type="MSShapeGroup"></path>
                    <path d="M83.7131808,73.6213306 C84.6796094,73.6302293 85.0057686,73.1491851 85.0148053,72.5521153 C85.0206624,72.1617695 84.7386829,71.8203667 84.0497155,71.8130081 C83.3262747,71.8056496 82.6028339,71.8020559 81.8793931,71.802227 C81.7533808,72.406142 81.6283727,73.010057 81.5045359,73.6141432 C82.2406951,73.612603 82.9768543,73.6148277 83.7131808,73.6213306 M80.0042706,70.1089034 C81.4777604,70.0946997 82.9514176,70.0965821 84.4249073,70.1143795 C86.3147563,70.1386799 87.2145808,71.1774342 87.1802747,72.4769895 C87.1374339,74.0621595 85.998638,75.3033597 83.7329278,75.2809418 C82.8784543,75.2734121 82.0238135,75.2713586 81.16934,75.27461 C80.9700298,76.2841013 80.7733971,77.2939348 80.5797767,78.3041106 C79.8675482,78.3090733 79.1553196,78.3178009 78.443091,78.3306356 C78.9416176,75.5881187 79.4620665,72.8473132 80.0042706,70.1089034" id="Fill-61" fill="#1A1A1A" sketch:type="MSShapeGroup"></path>
                    <path d="M94.6040359,75.6413057 C94.4972686,74.5406026 94.3876563,73.4398994 94.2755339,72.3391963 C93.5818808,73.3907853 92.8979339,74.4459681 92.2233584,75.5045735 C93.0172522,75.5454733 93.8108114,75.5909937 94.6040359,75.6413057 M93.5281624,70.4268272 C94.4105829,70.476797 95.2928359,70.5325851 96.1749216,70.5940205 C96.5169788,73.3574151 96.8387869,76.1214943 97.1405135,78.8857446 C96.4001706,78.8285874 95.6594931,78.7753662 94.9186482,78.7264233 C94.8692808,78.2123511 94.8194114,77.6982789 94.7688727,77.1842068 C93.6156849,77.1095944 92.4619951,77.0449076 91.3079706,76.9904885 C90.9973747,77.4860787 90.6889543,77.9825246 90.382542,78.4796549 C89.7004359,78.4503919 89.0181624,78.4247225 88.3357216,78.4024757 C90.0040033,75.7220787 91.73504,73.0627306 93.5281624,70.4268272" id="Fill-63" fill="#1A1A1A" sketch:type="MSShapeGroup"></path>
                    <path d="M106.698551,74.8124242 C107.503489,74.9123637 107.88504,74.7116291 107.954657,74.1518654 C108.00553,73.7430377 107.798187,73.4529737 107.135661,73.3698049 C106.34411,73.2708922 105.552057,73.1766 104.759669,73.0870994 C104.603534,73.5678014 104.448069,74.0486745 104.293273,74.5295476 C105.095534,74.6190482 105.897293,74.7133404 106.698551,74.8124242 M105.885579,78.0445418 C106.823057,78.1590272 107.194902,77.8042764 107.26251,77.2547804 C107.319408,76.7923893 107.120098,76.4597141 106.3662,76.3664487 C105.511057,76.2613753 104.655244,76.1617781 103.799098,76.067657 C103.622547,76.6265651 103.447,77.1854731 103.272457,77.7447234 C104.144,77.8388445 105.01504,77.9387839 105.885579,78.0445418 M103.075657,71.1921856 C104.631983,71.3537315 106.186971,71.533075 107.740453,71.730387 C109.168926,71.9112705 110.342698,72.6803253 110.145396,74.130132 C110.0152,75.0978678 109.552987,75.6110843 108.520624,75.8775325 C109.045257,76.1771797 109.453751,76.7263334 109.333428,77.6293823 C109.173612,78.8147944 108.185763,80.0423043 105.556408,79.7193835 C103.917747,79.5215581 102.277412,79.3442682 100.635571,79.187685 C101.427624,76.5180692 102.24093,73.8529027 103.075657,71.1921856" id="Fill-65" fill="#1A1A1A" sketch:type="MSShapeGroup"></path>
                    <path d="M118.170484,78.5511014 C118.188725,77.4450932 118.204456,76.3387428 118.217342,75.2320502 C117.407048,76.1937964 116.605958,77.1603342 115.814072,78.1313214 C116.600101,78.2665135 117.385627,78.4063261 118.170484,78.5511014 M117.689529,73.2433575 C118.56308,73.3982295 119.435962,73.5589198 120.308007,73.7252574 C120.335619,76.5108988 120.343317,79.294829 120.330766,82.0767056 C119.599293,81.9314169 118.866982,81.7900641 118.13417,81.6531608 C118.143374,81.1365217 118.151909,80.6200537 118.159774,80.1032434 C117.01897,79.8915566 115.876827,79.6897952 114.733513,79.4981305 C114.368027,79.9533342 114.00455,80.4097359 113.642913,80.8669931 C112.966831,80.7567859 112.290248,80.6500013 111.613497,80.5468104 C113.578484,78.0828919 115.604052,75.6477231 117.689529,73.2433575" id="Fill-67" fill="#1A1A1A" sketch:type="MSShapeGroup"></path>
                    <path d="M127.121253,75.145185 C127.84871,75.3096402 128.575163,75.4782024 129.301282,75.6507007 C128.371669,77.6717368 127.455445,79.6973934 126.552608,81.7278416 C127.990955,82.05949 129.426792,82.4075668 130.859784,82.7719009 C130.623992,83.2781012 130.389204,83.7848148 130.155253,84.2916995 C128.036976,83.7570919 125.912339,83.258079 123.782012,82.7948322 C124.874118,80.2379906 125.987143,77.6879941 127.121253,75.145185" id="Fill-69" fill="#1A1A1A" sketch:type="MSShapeGroup"></path>
                    <path d="M137.493768,77.7774604 C138.214029,77.9804197 138.933621,78.1873149 139.652376,78.3983172 C138.621519,80.3676723 137.603715,82.3423324 136.599466,84.3224686 C138.02409,84.7302695 139.4452,85.1543277 140.862796,85.5946432 C140.601568,86.0878376 140.341343,86.5815454 140.081956,87.0754243 C137.986102,86.4282136 135.882384,85.81694 133.771637,85.2412614 C134.991596,82.7451705 136.232307,80.2571228 137.493768,77.7774604" id="Fill-71" fill="#1A1A1A" sketch:type="MSShapeGroup"></path>
                    <path d="M143.752778,86.7099265 C144.385851,86.4884853 145.021602,86.2701244 145.659863,86.0548439 C145.91808,86.8612048 146.656749,87.6365913 147.870516,88.0633875 C148.987557,88.457327 149.607745,88.4082129 149.778104,87.9170721 C149.965198,87.3763037 149.643557,87.1856658 148.286876,86.4662385 C146.459447,85.4926844 145.397798,84.6218078 145.911553,83.0007007 C146.49459,81.1542164 148.266961,80.9714504 150.544218,81.7784958 C152.452476,82.4573654 153.348116,83.3960092 153.774182,84.5263177 C153.144288,84.7205494 152.516569,84.9176902 151.891194,85.1180825 C151.765684,84.5649929 151.227831,83.7661617 149.949635,83.3126693 C148.848492,82.9228369 148.22228,82.9959091 148.070496,83.457958 C147.904153,83.9627892 148.21341,84.212809 149.654937,84.9762164 C151.399529,85.8956937 152.539496,86.8018229 151.957463,88.4195075 C151.347316,90.111462 149.715182,90.503348 147.236439,89.6297333 C145.21221,88.9200604 144.196582,87.8818194 143.752778,86.7099265" id="Fill-73" fill="#1A1A1A" sketch:type="MSShapeGroup"></path>
                    <path d="M46.7183118,45.8610737 C47.1319935,45.8610737 47.380169,45.6202949 47.380169,45.2429549 C47.380169,44.8459352 47.1256343,44.631168 46.7183118,44.631168 L46.0182996,44.631168 L46.0182996,45.8610737 L46.7183118,45.8610737 Z M44.8793363,43.7202471 L46.8647404,43.7202471 C47.8955976,43.7202471 48.4873363,44.3253601 48.4873363,45.1842576 C48.4873363,45.7505242 48.2200833,46.3036139 47.6347037,46.5508956 L48.67192,48.3599026 L47.4310424,48.3599026 L46.5337282,46.7201424 L46.0182996,46.7201424 L46.0182996,48.3599026 L44.8793363,48.3599026 L44.8793363,43.7202471 Z" id="Fill-75" fill="#404041" sketch:type="MSShapeGroup"></path>
                    <path d="M60.9384673,47.5789715 L61.721149,47.5789715 L61.721149,44.4945384 L60.9384673,44.4945384 L60.9384673,43.7201787 L63.636602,43.7201787 L63.636602,44.4945384 L62.8537531,44.4945384 L62.8537531,47.5789715 L63.636602,47.5789715 L63.636602,48.3598341 L60.9384673,48.3598341 L60.9384673,47.5789715 Z" id="Fill-77" fill="#404041" sketch:type="MSShapeGroup"></path>
                </g>
            </g>
            <text id="6-v-6-GAME" sketch:type="MSTextLayer" font-family="Graphik" font-size="42" font-weight="526" sketch:alignment="middle" fill="#FFFFFF">
                <tspan x="111.696" y="265">6 v 6</tspan>
                <tspan x="98.214" y="311">GAME</tspan>
                <tspan x="49.41" y="357">PLANNING</tspan>
            </text>
            <text id="UNSTOPPABALLS" sketch:type="MSTextLayer" font-family="Graphik" font-size="14" font-weight="420" sketch:alignment="middle" letter-spacing="3.9000001" fill="#FFFFFF">
                <tspan x="75.9479994" y="208">UNSTOPPABALLS</tspan>
            </text>
            <path d="M19.5,204.5 L63.511364,204.5" id="Line" stroke="#FFFFFF" stroke-linecap="square" sketch:type="MSShapeGroup"></path>
            <path d="M255,205 L299.011364,205" id="Line-Copy" stroke="#FFFFFF" stroke-linecap="square" sketch:type="MSShapeGroup"></path>
            <path d="M19.5,393.5 L299.815887,393.5" id="Line" stroke="#FFFFFF" stroke-linecap="square" sketch:type="MSShapeGroup"></path>
            <g id="SECTION-NAV-mobile" sketch:type="MSLayerGroup" transform="translate(117.000000, 511.000000)" fill="#FFFFFF">
                <text id="START" sketch:type="MSTextLayer" font-family="Graphik" font-size="28" font-weight="526" sketch:alignment="middle">
                    <tspan x="0.806" y="23">START</tspan>
                </text>
                <g id="SECTION-TOGGLE" transform="translate(172.000000, 7.000000)" sketch:type="MSShapeGroup">
                    <path d="M4.25,11 L10.5,11 L4.42857143,3 L-2,11 L4.25,11 Z" id="SECTION-TOGGLE-right" transform="translate(4.250000, 7.000000) scale(1, -1) rotate(-270.000000) translate(-4.250000, -7.000000) "></path>
                </g>
            </g>
        </g>
    </g>
</svg>