<?xml version="1.0" encoding="UTF-8" standalone="no"?>
<svg width="286px" height="420px" viewBox="0 0 286 420" version="1.1" xmlns="http://www.w3.org/2000/svg" xmlns:xlink="http://www.w3.org/1999/xlink" xmlns:sketch="http://www.bohemiancoding.com/sketch/ns">
    <!-- Generator: Sketch 3.4.1 (15681) - http://www.bohemiancoding.com/sketch -->
    <title>LAYOUT</title>
    <desc>Created with Sketch.</desc>
    <defs></defs>
    <g id="SEQUENCE" stroke="none" stroke-width="1" fill="none" fill-rule="evenodd" sketch:type="MSPage">
        <g id="DEFENDING-2" sketch:type="MSArtboardGroup" transform="translate(-17.000000, -59.000000)">
            <g id="LAYOUT" sketch:type="MSLayerGroup" transform="translate(20.000000, 64.000000)">
                <path d="M139.816972,409.666444 L139.816972,409.71972 L58,409.71972 L101.660958,205.173662 L139.183028,205.055276 L139.183028,205 L177.339042,205.120386 L221,409.666444 L139.816972,409.666444 Z" id="DANGER-ZONE-DEFEND-mobile" fill="#04C97E" sketch:type="MSShapeGroup"></path>
                <g id="FIELD-mobile" stroke="#FFFFFF" sketch:type="MSShapeGroup">
                    <rect id="TURF" stroke-width="5" fill-opacity="0" fill="#548420" x="2" y="0" width="275.747164" height="410" rx="26.1"></rect>
                    <g id="CENTER-LINE" transform="translate(0.000000, 175.000000)" stroke-width="4" stroke-linecap="square">
                        <path d="M0.22528363,30 L277.085335,30" id="Line"></path>
                        <ellipse id="Oval-1" cx="139.225284" cy="29.7362637" rx="29.7374392" ry="29.7362637"></ellipse>
                    </g>
                    <g id="GOAL-BOX-ATTACK" transform="translate(95.069692, 1.351648)" stroke-width="4" stroke-linecap="square">
                        <path d="M0,0 L0,64.8791209 L89.6628849,64.8791209 L89.6628849,0" id="Path-2"></path>
                        <path d="M23.2780929,-3.55271368e-15 L23.2780929,13.2196299 L67.8661646,13.2196299 L67.8661646,-3.55271368e-15" id="Path-3"></path>
                        <path d="M75.6952998,95.967033 C75.6952998,79.0464848 61.9779431,65.3296703 45.0567261,65.3296703 C28.1355091,65.3296703 14.4181524,79.0464848 14.4181524,95.967033" id="Oval-2" transform="translate(45.056726, 80.648352) scale(1, -1) translate(-45.056726, -80.648352) "></path>
                    </g>
                    <g id="GOAL-BOX-DEFENSE" transform="translate(140.069692, 360.648352) scale(1, -1) translate(-140.069692, -360.648352) translate(95.069692, 312.648352)" stroke-width="4" stroke-linecap="square">
                        <path d="M0,0 L0,64.8791209 L89.6628849,64.8791209 L89.6628849,0" id="Path-2"></path>
                        <path d="M23.2780929,-3.55271368e-15 L23.2780929,13.2196299 L67.8661646,13.2196299 L67.8661646,-3.55271368e-15" id="Path-3"></path>
                        <path d="M75.6952998,95.967033 C75.6952998,79.0464848 61.9779431,65.3296703 45.0567261,65.3296703 C28.1355091,65.3296703 14.4181524,79.0464848 14.4181524,95.967033" id="Oval-2" transform="translate(45.056726, 80.648352) scale(1, -1) translate(-45.056726, -80.648352) "></path>
                    </g>
                </g>
                <g id="ARROW-mobile" transform="translate(196.000000, 257.500000) rotate(-30.000000) translate(-196.000000, -257.500000) translate(180.000000, 249.000000)" sketch:type="MSShapeGroup">
                    <g id="Page-1" transform="translate(16.000000, 0.000000)" fill="#FEFEFE">
                        <path d="M0.286954545,0.171163158 L8.61468182,8.36203158 L0.286954545,16.5529 L7.35331818,16.5529 L15.6755909,8.36203158 L7.35331818,0.171163158 L0.286954545,0.171163158 Z" id="Fill-3"></path>
                    </g>
                    <circle id="Oval-20" fill="#F9F7F7" cx="14" cy="8" r="2"></circle>
                    <circle id="Oval-20" fill="#F9F7F7" cx="2" cy="8" r="2"></circle>
                </g>
                <g id="ARROW-mobile-Copy-2" transform="translate(141.106406, 225.361216) rotate(-90.000000) translate(-141.106406, -225.361216) translate(125.106406, 216.861216)" sketch:type="MSShapeGroup">
                    <g id="Page-1" transform="translate(16.000000, 0.000000)" fill="#FEFEFE">
                        <path d="M0.286954545,0.171163158 L8.61468182,8.36203158 L0.286954545,16.5529 L7.35331818,16.5529 L15.6755909,8.36203158 L7.35331818,0.171163158 L0.286954545,0.171163158 Z" id="Fill-3"></path>
                    </g>
                    <circle id="Oval-20" fill="#F9F7F7" cx="14" cy="8" r="2"></circle>
                    <circle id="Oval-20" fill="#F9F7F7" cx="2" cy="8" r="2"></circle>
                </g>
                <g id="ARROW-mobile-Copy" transform="translate(200.000000, 346.000000)" sketch:type="MSShapeGroup">
                    <g id="Page-1" transform="translate(16.000000, 0.000000)" fill="#FEFEFE">
                        <path d="M0.286954545,0.171163158 L8.61468182,8.36203158 L0.286954545,16.5529 L7.35331818,16.5529 L15.6755909,8.36203158 L7.35331818,0.171163158 L0.286954545,0.171163158 Z" id="Fill-3"></path>
                    </g>
                    <circle id="Oval-20" fill="#F9F7F7" cx="14" cy="8" r="2"></circle>
                    <circle id="Oval-20" fill="#F9F7F7" cx="2" cy="8" r="2"></circle>
                </g>
                <g id="ARROW-mobile" transform="translate(82.000000, 257.500000) scale(-1, 1) rotate(-30.000000) translate(-82.000000, -257.500000) translate(66.000000, 249.000000)" sketch:type="MSShapeGroup">
                    <g id="Page-1" transform="translate(16.000000, 0.000000)" fill="#FEFEFE">
                        <path d="M0.286954545,0.171163158 L8.61468182,8.36203158 L0.286954545,16.5529 L7.35331818,16.5529 L15.6755909,8.36203158 L7.35331818,0.171163158 L0.286954545,0.171163158 Z" id="Fill-3"></path>
                    </g>
                    <circle id="Oval-20" fill="#F9F7F7" cx="14" cy="8" r="2"></circle>
                    <circle id="Oval-20" fill="#F9F7F7" cx="2" cy="8" r="2"></circle>
                </g>
                <g id="ARROW-mobile-Copy" transform="translate(62.000000, 354.500000) scale(-1, 1) translate(-62.000000, -354.500000) translate(46.000000, 346.000000)" sketch:type="MSShapeGroup">
                    <g id="Page-1" transform="translate(16.000000, 0.000000)" fill="#FEFEFE">
                        <path d="M0.286954545,0.171163158 L8.61468182,8.36203158 L0.286954545,16.5529 L7.35331818,16.5529 L15.6755909,8.36203158 L7.35331818,0.171163158 L0.286954545,0.171163158 Z" id="Fill-3"></path>
                    </g>
                    <circle id="Oval-20" fill="#F9F7F7" cx="14" cy="8" r="2"></circle>
                    <circle id="Oval-20" fill="#F9F7F7" cx="2" cy="8" r="2"></circle>
                </g>
            </g>
        </g>
    </g>
</svg>